<?xml version="1.0" standalone="no"?>
<!DOCTYPE svg PUBLIC "-//W3C//DTD SVG 20010904//EN"
 "http://www.w3.org/TR/2001/REC-SVG-20010904/DTD/svg10.dtd">
<svg version="1.0" xmlns="http://www.w3.org/2000/svg"
 width="1024.000000pt" height="1024.000000pt" viewBox="0 0 1024.000000 1024.000000"
 preserveAspectRatio="xMidYMid meet">
<metadata>
Created by potrace 1.16, written by Peter Selinger 2001-2019
</metadata>
<g transform="translate(0.000000,1024.000000) scale(0.100000,-0.100000)"
fill="#000000" stroke="none">
<path d="M3950 8062 c-91 -2 -118 -6 -133 -20 -33 -29 -47 -77 -47 -161 0 -43
-9 -123 -20 -177 -12 -55 -25 -167 -30 -251 -5 -84 -18 -190 -29 -235 -11 -46
-24 -152 -30 -237 -6 -85 -17 -179 -25 -210 -8 -31 -17 -105 -21 -166 -4 -60
-17 -184 -31 -275 -13 -91 -24 -190 -24 -220 0 -30 -7 -95 -16 -145 -8 -49
-19 -115 -24 -145 -5 -30 -14 -116 -20 -190 -5 -74 -16 -160 -25 -190 -8 -30
-19 -125 -25 -210 -6 -85 -19 -209 -30 -275 -11 -66 -24 -176 -30 -245 -6 -69
-17 -165 -25 -215 -8 -49 -19 -137 -25 -195 -5 -58 -16 -141 -25 -185 -8 -44
-20 -144 -25 -222 -6 -79 -19 -185 -30 -237 -11 -52 -18 -105 -16 -118 3 -13
5 -35 5 -49 1 -19 12 -34 39 -53 l38 -26 426 0 c234 0 439 3 456 6 78 16 109
96 128 327 8 93 16 172 18 176 9 14 35 202 41 296 3 55 14 143 24 195 11 52
22 140 25 195 4 55 15 154 26 220 11 66 22 161 25 210 4 50 15 137 25 195 11
58 24 166 30 240 6 74 17 162 25 195 8 33 19 128 25 210 6 83 20 193 30 245
11 52 24 163 29 245 6 83 19 191 30 240 10 50 24 158 30 240 7 83 18 188 26
235 8 47 17 117 20 155 3 39 13 106 20 150 8 44 19 145 24 225 6 80 19 187 31
239 23 108 25 149 7 172 -31 40 -49 42 -422 43 -198 1 -412 0 -475 -2z"/>
<path d="M6177 8060 c-222 -6 -218 -4 -237 -122 -6 -40 -15 -97 -21 -127 -5
-30 -9 -75 -9 -101 0 -26 -5 -72 -11 -101 -16 -81 -28 -170 -38 -304 -10 -121
-24 -224 -42 -304 -6 -25 -14 -103 -19 -175 -9 -125 -16 -174 -40 -296 -6 -30
-15 -111 -20 -178 -5 -68 -16 -160 -25 -205 -8 -45 -19 -140 -25 -212 -6 -71
-17 -161 -25 -200 -8 -38 -19 -131 -25 -205 -6 -74 -19 -178 -30 -230 -10 -52
-22 -144 -25 -205 -4 -60 -15 -150 -25 -200 -10 -49 -21 -146 -24 -215 -4 -69
-13 -152 -21 -185 -8 -33 -20 -127 -26 -210 -6 -82 -21 -199 -34 -260 -12 -60
-23 -148 -24 -195 -2 -96 -19 -243 -33 -279 -4 -13 -15 -91 -23 -172 -10 -96
-25 -178 -41 -232 -24 -76 -32 -87 -99 -154 -128 -126 -171 -137 -580 -148
-143 -4 -270 -11 -282 -16 -12 -4 -34 -26 -49 -49 -23 -34 -28 -57 -36 -143
-4 -56 -13 -115 -19 -132 -6 -16 -13 -79 -16 -138 -6 -103 -5 -109 18 -133 44
-47 75 -55 254 -64 94 -5 249 -9 345 -9 202 0 558 22 586 37 10 5 36 13 58 16
21 4 75 22 120 40 219 89 306 146 461 309 82 86 109 121 149 201 27 53 52 98
56 101 4 3 11 17 14 32 4 16 15 46 26 68 33 68 78 255 84 351 4 50 11 106 17
125 21 72 39 187 40 254 0 39 4 95 9 125 5 30 16 114 25 185 17 141 28 225 50
380 8 55 15 127 15 160 0 33 7 94 15 135 23 110 45 268 45 326 0 50 26 257 35
282 3 7 12 88 20 180 8 92 19 181 25 197 5 17 17 100 26 185 9 85 20 180 24
210 4 30 13 102 20 160 6 58 20 159 31 225 10 66 24 183 30 260 6 77 17 169
25 205 8 36 19 128 25 205 9 131 14 167 38 286 6 26 15 111 21 189 6 79 17
175 25 214 33 168 29 209 -25 240 -30 18 -55 19 -314 20 -154 1 -366 -1 -469
-4z"/>
</g>
</svg>
